<svg width="30" height="30" viewBox="0 0 30 30" fill="none" xmlns="http://www.w3.org/2000/svg">
<g clip-path="url(#clip0)">
<path d="M26.6516 15.4988L25.6207 14.4676L13.0246 1.87183C10.5291 -0.62372 6.4683 -0.62372 3.97275 1.87183C1.55665 4.28793 1.48643 8.16609 3.74693 10.6752C3.78155 10.7197 3.81286 10.7655 3.85341 10.8057L14.5826 21.5356C16.282 23.234 19.0466 23.2343 20.7457 21.5356C22.4454 19.8358 22.4454 17.0709 20.7467 15.3719L14.605 9.23057C14.0116 8.63685 13.0487 8.63718 12.4553 9.23057C11.8613 9.82396 11.8609 10.7863 12.4553 11.3803L18.5966 17.5216C19.1109 18.0362 19.1109 18.8726 18.5963 19.3862C18.0817 19.9008 17.2453 19.9008 16.7317 19.3862L6.12116 8.77498C4.81042 7.46391 4.81075 5.33197 6.12116 4.02057C7.43256 2.71016 9.56417 2.71016 10.8749 4.02057L23.4707 16.617L24.5022 17.6479C26.6298 19.7755 26.6298 23.238 24.5022 25.3653C22.3749 27.4929 18.9127 27.4929 16.7848 25.3653L3.45749 12.039C2.86409 11.4456 1.90181 11.4452 1.30808 12.039C0.714361 12.6324 0.71469 13.595 1.30808 14.1887L14.635 27.5153C17.9482 30.8284 23.3385 30.8291 26.6516 27.5163C29.965 24.2025 29.9647 18.8116 26.6516 15.4988Z" fill="#29ABE2"/>
</g>
<defs>
<clipPath id="clip0">
<rect width="30" height="30" fill="white"/>
</clipPath>
</defs>
</svg>
